<?xml version="1.0" encoding="utf-8"?>
<!-- Generator: Adobe Illustrator 27.2.0, SVG Export Plug-In . SVG Version: 6.00 Build 0)  -->
<svg version="1.1" id="Ebene_1" xmlns="http://www.w3.org/2000/svg" xmlns:xlink="http://www.w3.org/1999/xlink" x="0px" y="0px"
	 viewBox="0 0 262.2 234.4" style="enable-background:new 0 0 262.2 234.4;" xml:space="preserve">
<style type="text/css">
	.st0{fill:#102A63;}
	.st1{fill:#00B1EB;}
</style>
<g id="Logo_Dark_Blue_00000024002099882217706060000016396714311786552975_">
	<path id="Helmholtz_00000116937446978302581670000010897799007824860089_" class="st0" d="M52.9,39.2h4.8V64h-4.8V54h-8.5v10h-4.8
		V39.2h4.8v10.1h8.5V39.2z M65.3,39.2c-0.2,0-0.4,0.1-0.6,0.2l-1.5,1.5c-0.2,0.1-0.2,0.4-0.2,0.6v20.2c0,0.2,0.1,0.4,0.2,0.6
		l1.5,1.5c0.1,0.2,0.4,0.2,0.6,0.2h13.3v-4.8H67.8V54h9.5v-4.8h-9.5v-5.3h10.9v-4.8H65.3z M85.9,64H97v-4.8h-8.7V39.2h-4.8v22.5
		c0,0.2,0.1,0.4,0.2,0.6l1.5,1.5C85.4,64,85.6,64,85.9,64L85.9,64z M132.6,49.2V39.2h-4.8V64h4.8V54h8.5v10h4.8V39.2h-4.8v10.1
		H132.6z M164.4,57c0,0.2-0.1,0.4-0.2,0.6l-1.5,1.5c-0.2,0.2-0.4,0.2-0.6,0.2h-4.3c-0.2,0-0.4-0.1-0.6-0.2l-1.5-1.5
		c-0.2-0.2-0.2-0.4-0.2-0.6V46.3c0-0.2,0.1-0.4,0.2-0.6l1.5-1.5c0.2-0.1,0.4-0.2,0.6-0.2h4.3c0.2,0,0.4,0.1,0.6,0.2l1.5,1.5
		c0.1,0.1,0.2,0.4,0.2,0.6V57z M165.5,40.4c-0.8-0.7-1.8-1.2-2.8-1.2h-5.6c-1.1,0-2.1,0.4-2.8,1.2l-2.5,2.5
		c-0.7,0.7-1.2,1.8-1.2,2.8v12c0,1.1,0.4,2.1,1.2,2.8l2.5,2.5c0.7,0.8,1.8,1.2,2.8,1.2h5.6c1.1,0,2.1-0.4,2.8-1.2l2.5-2.5
		c0.7-0.7,1.2-1.8,1.2-2.8v-12c0-1.1-0.4-2.1-1.2-2.8L165.5,40.4L165.5,40.4z M176.1,64h11.3v-4.8h-8.9V39.2h-4.8v22.5
		c0,0.2,0.1,0.4,0.2,0.6l1.5,1.5C175.7,64,175.9,64,176.1,64L176.1,64z M192.8,43.9V64h4.8V43.9h6.6v-4.8h-18v4.8H192.8z
		 M221.3,39.4c-0.1-0.1-0.4-0.2-0.6-0.2h-13.9v4.8h9.9l-10.3,16.3v1.4c0,0.2,0.1,0.4,0.2,0.6l1.5,1.5c0.1,0.2,0.4,0.2,0.6,0.2h14.2
		v-4.8h-10.3L223,42.7v-1.2c0-0.2-0.1-0.4-0.2-0.6L221.3,39.4L221.3,39.4z M117.8,39.2l-6.6,11.5l-6.6-11.5h-4.6V64h4.8V48.7
		l4.3,7.4c0.1,0.2,0.4,0.4,0.7,0.4h2.9c0.3,0,0.5-0.2,0.7-0.4l4.2-7.4V64h4.8V39.2H117.8z"/>
</g>
<g>
	<path class="st0" d="M39.6,194.8v-26.1H50c5.1,0,8.2,2.8,8.2,7.4v0.6c0,4.6-3.1,7.4-8.2,7.4h-6.7v10.8H39.6z M43.3,180.6h6.6
		c3,0,4.5-1.4,4.5-4V176c0-2.5-1.6-4-4.5-4h-6.6V180.6z"/>
	<path class="st0" d="M77,181.9v12.9h-3.2l-0.1-1.6c-1.4,1.3-3.4,2-5.8,2c-4.3,0-7-2.2-7-5.7c0-3.2,2.1-5.1,6.5-5.7l6-0.8v-1.2
		c0-2.5-1.5-3.9-4.3-3.9c-2.8,0-4.4,1.4-4.4,3.7v0.3H61v-0.3c0-4.3,3.1-7.1,8.1-7.1C74.2,174.5,77,177.2,77,181.9z M73.4,189.3v-3.4
		l-5.4,0.8c-2.4,0.3-3.5,1.3-3.5,2.8c0,1.6,1.4,2.6,3.6,2.6C70.4,192.1,72.4,191.1,73.4,189.3z"/>
	<path class="st0" d="M98.3,182.2v12.5h-3.6v-12.3c0-2.8-1.7-4.6-4.3-4.6c-2.1,0-3.8,1-4.7,2.5v14.3h-3.6V175h3.2l0.2,1.8
		c1.4-1.4,3.3-2.3,5.6-2.3C95.5,174.5,98.3,177.5,98.3,182.2z"/>
	<path class="st0" d="M115.8,167h3.6v27.7h-3.2l-0.2-1.6c-1.4,1.4-3.3,2.1-5.6,2.1c-4.7,0-7.6-3.1-7.6-7.8v-5.1c0-4.7,3-7.8,7.6-7.8
		c2.2,0,4.1,0.7,5.4,2V167z M115.8,189.3v-8.8c-0.9-1.6-2.7-2.5-4.7-2.5c-2.9,0-4.7,1.8-4.7,4.6v4.8c0,2.8,1.8,4.6,4.7,4.6
		C113.1,191.9,114.8,190.9,115.8,189.3z"/>
	<path class="st0" d="M140.5,186.2h-13v1c0,2.9,1.8,4.7,4.9,4.7c2.6,0,4.5-1.4,4.5-3.3h3.6c-0.2,3.9-3.5,6.7-8.1,6.7
		c-5.1,0-8.4-3.1-8.4-8v-4.7c0-4.8,3.3-8,8.4-8c5,0,8.2,3.2,8.2,8V186.2z M127.5,182.7v0.6h9.4v-0.6c0-2.9-1.8-4.8-4.6-4.8
		C129.3,177.9,127.5,179.7,127.5,182.7z"/>
	<path class="st0" d="M173,182.2v12.5h-3.6v-12.3c0-2.8-1.7-4.6-4.3-4.6c-1.9,0-3.5,1-4.5,2.4c0.1,0.6,0.2,1.2,0.2,1.9v12.5h-3.6
		v-12.3c0-2.8-1.7-4.6-4.3-4.6c-1.8,0-3.4,0.8-4.3,2.2v14.6H145V175h3.2l0.1,1.6c1.4-1.3,3.2-2,5.4-2c2.5,0,4.5,1,5.7,2.7
		c1.4-1.7,3.5-2.7,6.2-2.7C170.2,174.5,173,177.4,173,182.2z"/>
	<path class="st0" d="M177.4,169.6c0-1.5,1.1-2.5,2.5-2.5c1.4,0,2.5,1,2.5,2.5c0,1.4-1,2.4-2.5,2.4S177.4,170.9,177.4,169.6z
		 M181.7,194.8h-3.6V175h3.6V194.8z"/>
	<path class="st0" d="M186.5,187.2v-4.7c0-4.8,3.3-8,8.4-8c4.8,0,8.1,3.1,8.1,7.6v0.4h-3.6v-0.4c0-2.5-1.9-4.2-4.5-4.2
		c-3,0-4.8,1.8-4.8,4.7v4.5c0,2.9,1.8,4.7,4.8,4.7c2.7,0,4.5-1.7,4.5-4.1v-0.4h3.6v0.4c0,4.5-3.2,7.5-8.1,7.5
		C189.9,195.2,186.5,192.1,186.5,187.2z"/>
	<path class="st0" d="M206.9,188.9v-0.4h3.6v0.4c0,2,1.6,3,4.6,3c2.8,0,4.4-1,4.4-2.5v-0.3c0-1.4-1-2.2-3.2-2.6l-2.9-0.5
		c-3.9-0.7-6-2.6-6-5.4v-0.4c0-3.5,3.1-5.7,7.8-5.7c4.8,0,7.8,2.4,7.8,6.3v0.4h-3.5v-0.4c0-2-1.5-3-4.4-3c-2.6,0-4.1,0.9-4.1,2.3
		v0.3c0,1.2,1,2,3.1,2.5l2.9,0.6c4,0.8,6.1,2.7,6.1,5.5v0.4c0,3.5-3.2,5.8-8,5.8C210,195.2,206.9,192.8,206.9,188.9z"/>
</g>
<g>
	<path class="st0" d="M78.7,137.2v13H45.9c-0.6,0-1.1-0.2-1.5-0.6l-4.2-4.2c-0.4-0.4-0.6-1-0.6-1.5V82.5h13v54.7H78.7z"/>
	<path class="st0" d="M126.3,85.6l6.8,6.7c2,2,3.2,4.8,3.2,7.6v32.7c0,2.9-1.1,5.6-3.2,7.6l-6.8,6.8c-2,2-4.8,3.2-7.6,3.2h-15.2
		c-2.9,0-5.7-1.1-7.7-3.2l-6.7-6.8c-2-2-3.2-4.8-3.2-7.6V99.9c0-2.9,1.1-5.6,3.2-7.6l6.7-6.7c2.1-2.1,4.9-3.2,7.7-3.2h15.2
		C121.6,82.4,124.3,83.6,126.3,85.6z M123.3,130.9v-29.1c0-0.6-0.3-1.1-0.7-1.5l-4.1-4.2c-0.5-0.4-1.1-0.7-1.6-0.7h-11.7
		c-0.6,0-1.1,0.3-1.5,0.7l-4.1,4.2c-0.5,0.4-0.7,1-0.7,1.5v29.1c0,0.6,0.2,1.1,0.7,1.5l4.1,4.1c0.5,0.5,1,0.7,1.5,0.7h11.7
		c0.6,0,1.1-0.2,1.6-0.7l4.1-4.1C123,132,123.3,131.5,123.3,130.9z"/>
	<path class="st0" d="M200.9,150.2h-16.7l-24.5-30.4v30.4h-13V82.4h13V111l21.4-26.5c1-1.3,2.6-2,4.2-2h14.1l-26.6,33L200.9,150.2z"
		/>
	<path class="st1" d="M223,150.2h-13V82.4h13V150.2z"/>
</g>
</svg>
